# xmcd
#
# Track frame offsets:
#	150
#	14444
#	31717
#	50390
#	64757
#	80706
#	97430
#	121587
#	135907
#	152643
#	168447
#
# Disc length: 2647 seconds
# Revision: 2
# Processed by: cddbd v1.5.2PL0 Copyright (c) Steve Scherf et al.
# Submitted via: dBpowerAMP V12.0
#
DISCID=850a550b
DTITLE=Adrianna Marie and Her Groovecutters - Double Crossing Blues
DYEAR=2013
DGENRE=Blues
TTITLE0=I Want A Tall Skinny Poppa
TTITLE1=I Ain't In The Mood
TTITLE2=Is You Is or Is You Ain't My Baby
TTITLE3=Cherry Wine
TTITLE4=Sugar
TTITLE5=Hands Off
TTITLE6=Double Crossing Blues
TTITLE7=That's A Pretty Good Love
TTITLE8=I Won't Sell My Love
TTITLE9=He May Be Your Man
TTITLE10=The Sad Night Owl
EXTD=
EXTT0=
EXTT1=
EXTT2=
EXTT3=
EXTT4=
EXTT5=
EXTT6=
EXTT7=
EXTT8=
EXTT9=
EXTT10=
PLAYORDER=
